<svg xmlns="http://www.w3.org/2000/svg" width="48" height="48" viewBox="0 0 48 48" fill="none">
  <rect width="48" height="48" rx="8" fill="#3E8E41"/>
  <path d="M9 13.5C9 12.6716 9.67157 12 10.5 12H37.5C38.3284 12 39 12.6716 39 13.5C39 14.3284 38.3284 15 37.5 15H10.5C9.67157 15 9 14.3284 9 13.5Z" fill="white"/>
  <path d="M9 22.5C9 21.6716 9.67157 21 10.5 21H37.5C38.3284 21 39 21.6716 39 22.5C39 23.3284 38.3284 24 37.5 24H10.5C9.67157 24 9 23.3284 9 22.5Z" fill="white"/>
  <path d="M10.5 30C9.67157 30 9 30.6716 9 31.5C9 32.3284 9.67157 33 10.5 33H25.5C26.3284 33 27 32.3284 27 31.5C27 30.6716 26.3284 30 25.5 30H10.5Z" fill="white"/>
  <circle cx="34.5" cy="31.5" r="4.5" fill="white"/>
  <path d="M34.5 27C32.0147 27 30 29.0147 30 31.5C30 33.9853 32.0147 36 34.5 36C36.9853 36 39 33.9853 39 31.5C39 29.0147 36.9853 27 34.5 27ZM34.5 34.5C32.8431 34.5 31.5 33.1569 31.5 31.5C31.5 29.8431 32.8431 28.5 34.5 28.5C36.1569 28.5 37.5 29.8431 37.5 31.5C37.5 33.1569 36.1569 34.5 34.5 34.5Z" fill="#3E8E41"/>
  <path d="M14 13.5C14 14.3284 13.3284 15 12.5 15C11.6716 15 11 14.3284 11 13.5C11 12.6716 11.6716 12 12.5 12C13.3284 12 14 12.6716 14 13.5Z" fill="#3E8E41"/>
  <path d="M14 22.5C14 23.3284 13.3284 24 12.5 24C11.6716 24 11 23.3284 11 22.5C11 21.6716 11.6716 21 12.5 21C13.3284 21 14 21.6716 14 22.5Z" fill="#3E8E41"/>
  <path d="M14 31.5C14 32.3284 13.3284 33 12.5 33C11.6716 33 11 32.3284 11 31.5C11 30.6716 11.6716 30 12.5 30C13.3284 30 14 30.6716 14 31.5Z" fill="#3E8E41"/>
</svg>