<svg xmlns="http://www.w3.org/2000/svg" width="16" height="16" viewBox="0 0 16 16" fill="none">
  <rect width="16" height="16" rx="3" fill="#3E8E41"/>
  <path d="M3 4.5C3 4.22386 3.22386 4 3.5 4H12.5C12.7761 4 13 4.22386 13 4.5C13 4.77614 12.7761 5 12.5 5H3.5C3.22386 5 3 4.77614 3 4.5Z" fill="white"/>
  <path d="M3 7.5C3 7.22386 3.22386 7 3.5 7H12.5C12.7761 7 13 7.22386 13 7.5C13 7.77614 12.7761 8 12.5 8H3.5C3.22386 8 3 7.77614 3 7.5Z" fill="white"/>
  <path d="M3.5 10C3.22386 10 3 10.2239 3 10.5C3 10.7761 3.22386 11 3.5 11H8.5C8.77614 11 9 10.7761 9 10.5C9 10.2239 8.77614 10 8.5 10H3.5Z" fill="white"/>
  <circle cx="11.5" cy="10.5" r="1.5" fill="white"/>
</svg>