<svg xmlns="http://www.w3.org/2000/svg" width="128" height="128" viewBox="0 0 128 128" fill="none">
  <rect width="128" height="128" rx="16" fill="#3E8E41"/>
  <path d="M24 36C24 33.7909 25.7909 32 28 32H100C102.209 32 104 33.7909 104 36C104 38.2091 102.209 40 100 40H28C25.7909 40 24 38.2091 24 36Z" fill="white"/>
  <path d="M24 60C24 57.7909 25.7909 56 28 56H100C102.209 56 104 57.7909 104 60C104 62.2091 102.209 64 100 64H28C25.7909 64 24 62.2091 24 60Z" fill="white"/>
  <path d="M28 80C25.7909 80 24 81.7909 24 84C24 86.2091 25.7909 88 28 88H68C70.2091 88 72 86.2091 72 84C72 81.7909 70.2091 80 68 80H28Z" fill="white"/>
  <circle cx="92" cy="84" r="12" fill="white"/>
  <path d="M92 72C85.3726 72 80 77.3726 80 84C80 90.6274 85.3726 96 92 96C98.6274 96 104 90.6274 104 84C104 77.3726 98.6274 72 92 72ZM92 92C87.5817 92 84 88.4183 84 84C84 79.5817 87.5817 76 92 76C96.4183 76 100 79.5817 100 84C100 88.4183 96.4183 92 92 92Z" fill="#3E8E41"/>
  <path d="M36 36C36 38.2091 33.9853 40 31.5 40C29.0147 40 27 38.2091 27 36C27 33.7909 29.0147 32 31.5 32C33.9853 32 36 33.7909 36 36Z" fill="#3E8E41"/>
  <path d="M36 60C36 62.2091 33.9853 64 31.5 64C29.0147 64 27 62.2091 27 60C27 57.7909 29.0147 56 31.5 56C33.9853 56 36 57.7909 36 60Z" fill="#3E8E41"/>
  <path d="M36 84C36 86.2091 33.9853 88 31.5 88C29.0147 88 27 86.2091 27 84C27 81.7909 29.0147 80 31.5 80C33.9853 80 36 81.7909 36 84Z" fill="#3E8E41"/>
  <path d="M92 84C92 88.4183 88.4183 92 84 92C79.5817 92 76 88.4183 76 84C76 79.5817 79.5817 76 84 76C88.4183 76 92 79.5817 92 84Z" fill="#3E8E41"/>
  <path d="M92 84C92 86.2091 90.2091 88 88 88C85.7909 88 84 86.2091 84 84C84 81.7909 85.7909 80 88 80C90.2091 80 92 81.7909 92 84Z" fill="white"/>
  <path d="M64 104C64 106.209 62.2091 108 60 108H40C37.7909 108 36 106.209 36 104C36 101.791 37.7909 100 40 100H60C62.2091 100 64 101.791 64 104Z" fill="white"/>
  <path d="M92 104C92 106.209 90.2091 108 88 108H68C65.7909 108 64 106.209 64 104C64 101.791 65.7909 100 68 100H88C90.2091 100 92 101.791 92 104Z" fill="white"/>
  <path d="M44 36C44 38.2091 42.2091 40 40 40C37.7909 40 36 38.2091 36 36C36 33.7909 37.7909 32 40 32C42.2091 32 44 33.7909 44 36Z" fill="#3E8E41"/>
  <path d="M44 60C44 62.2091 42.2091 64 40 64C37.7909 64 36 62.2091 36 60C36 57.7909 37.7909 56 40 56C42.2091 56 44 57.7909 44 60Z" fill="#3E8E41"/>
  <path d="M44 84C44 86.2091 42.2091 88 40 88C37.7909 88 36 86.2091 36 84C36 81.7909 37.7909 80 40 80C42.2091 80 44 81.7909 44 84Z" fill="#3E8E41"/>
  <path d="M44 104C44 106.209 42.2091 108 40 108C37.7909 108 36 106.209 36 104C36 101.791 37.7909 100 40 100C42.2091 100 44 101.791 44 104Z" fill="#3E8E41"/>
</svg>