<svg xmlns="http://www.w3.org/2000/svg" width="48" height="48" viewBox="0 0 48 48" fill="none">
  <!-- Background with rounded corners -->
  <rect width="48" height="48" rx="10" fill="#252525"/>
  
  <!-- Brain icon with gradient -->
  <path d="M24 10.5C17.0959 10.5 11.5 16.0959 11.5 23C11.5 27.7978 14.1356 31.9026 18 33.9316V34.5C18 36.0533 19.1967 37.25 20.75 37.25H27.25C28.8033 37.25 30 36.0533 30 34.5V33.9316C33.8644 31.9026 36.5 27.7978 36.5 23C36.5 16.0959 30.9041 10.5 24 10.5Z" fill="url(#paint0_linear)"/>
  
  <!-- Lightning bolt -->
  <path d="M26.25 19.5L21.75 28.5L25.5 28.5L21.75 37.5L30.75 25.5L26.25 25.5L30.75 19.5L26.25 19.5Z" fill="#FFFFFF"/>
  
  <!-- Code lines -->
  <rect x="15" y="15" width="18" height="1.5" rx="0.75" fill="#FFFFFF" fill-opacity="0.6"/>
  <rect x="15" y="18.75" width="12" height="1.5" rx="0.75" fill="#FFFFFF" fill-opacity="0.6"/>
  <rect x="15" y="22.5" width="15" height="1.5" rx="0.75" fill="#FFFFFF" fill-opacity="0.6"/>
  
  <!-- Gradient definition -->
  <defs>
    <linearGradient id="paint0_linear" x1="11.5" y1="10.5" x2="36.5" y2="37.25" gradientUnits="userSpaceOnUse">
      <stop offset="0" stop-color="#4fc3f7"/>
      <stop offset="1" stop-color="#2196f3"/>
    </linearGradient>
  </defs>
</svg>